<svg width="696" height="696" viewBox="0 0 696 696" fill="none" xmlns="http://www.w3.org/2000/svg">
<circle cx="348" cy="348" r="348" fill="#102B19"/>
<path d="M461.5 296H235.5V305H461.5V296Z" fill="#CDB55E"/>
<path d="M408.5 279.5C405.82 275.671 386.526 257.615 376.857 247.868C376.542 247.551 376.111 247.761 376.246 248.188C377.623 252.544 384.244 263.898 382 263C372.8 257.4 372.167 258.667 373 260C381 271.5 412 284.5 408.5 279.5Z" fill="#CDB55E"/>
<path d="M410.5 246L400.5 250.5C407.3 256.1 421 265.5 426.5 269C418.1 261.4 410.5 246 410.5 246Z" fill="#CDB55E"/>
<path d="M279.768 254.373C273.727 253.858 254.566 275.444 251.189 280.226C277.804 269.599 282.9 263.26 281.383 256.374C281.18 255.452 280.708 254.454 279.768 254.373Z" fill="#CDB55E"/>
<path d="M347 199.5C342.2 206.7 299.333 253.5 278.5 276C282.9 274.4 309.667 257 322.5 248.5L301.5 280L341 257L333 272L352.5 252.5L360 257C359.6 255 352.833 243.5 349.5 238C341.9 243.6 332.333 248 328.5 249.5C341 234.5 347 221.5 349.5 211C357.9 217.4 362 220.667 363 221.5C356 214.5 350.5 205.333 347 199.5Z" fill="#CDB55E"/>
<path d="M348.5 111C334 128.5 332.5 135.5 340.5 149.5V158.5C338 154 331.3 145 324.5 145C312 145 306 164.5 322.5 168C320 160.5 333 151.5 340.5 167.5V180.846C340.5 181.271 340.374 181.673 340.121 182.015C326.531 200.407 296.612 231.544 289.505 238.574C288.569 239.5 287.269 239.708 286.046 239.219L275.5 235L255.843 254.657C254.343 256.157 252.308 257 250.186 257H250.07C248.399 257 246.744 256.477 245.425 255.451C214.618 231.47 228.819 196.873 243.5 214C250 201.5 236.7 185.1 221.5 207.5C221.5 199.5 223 180.5 199.5 181.5C214.5 214 231.5 267.5 233 281C240.833 276.333 260 261.7 276 242.5L288.755 247.967C289.507 248.289 290.366 248.134 290.944 247.555C308.745 229.702 343.097 193.85 348.5 185.5L348.5 111Z" fill="#CDB55E"/>
<path d="M348.5 111C363 128.5 364.5 135.5 356.5 149.5V158.5C359 154 365.7 145 372.5 145C385 145 391 164.5 374.5 168C377 160.5 364 151.5 356.5 167.5V180.846C356.5 181.271 356.63 181.678 356.882 182.019C370.035 199.861 393.578 225.052 400.239 231.799C401.298 232.872 402.828 233.032 404.141 232.29L413.5 227L441.157 254.657C442.657 256.157 444.692 257 446.814 257H446.93C448.601 257 450.256 256.477 451.575 255.451C482.382 231.47 468.181 196.873 453.5 214C447 201.5 460.3 185.1 475.5 207.5C475.5 199.5 474 180.5 497.5 181.5C482.5 214 465.5 267.5 464 281C456.167 276.333 428.5 254.7 412.5 235.5L400.255 240.942C399.499 241.278 398.621 241.122 398.038 240.535C380.509 222.918 353.9 193.846 348.5 185.5L348.5 111Z" fill="#CDB55E"/>
<path d="M342.5 120.5L348.5 111L350 114L351.5 116L353 120.5L355 192.5L350 187L349 186L348.5 185.5L348 186L341.5 192.5L342.5 120.5Z" fill="#CDB55E"/>
<path d="M159.268 353.808C159.268 352.339 159.116 351.224 158.812 350.464C158.559 349.704 157.976 349.172 157.064 348.868C156.152 348.564 154.784 348.412 152.96 348.412C152.808 348.412 152.732 348.26 152.732 347.956C152.732 347.652 152.808 347.5 152.96 347.5C154.277 347.5 155.772 347.551 157.444 347.652C159.167 347.703 161.193 347.728 163.524 347.728C165.348 347.728 167.147 347.703 168.92 347.652C170.744 347.551 172.315 347.5 173.632 347.5C173.784 347.5 173.86 347.652 173.86 347.956C173.86 348.26 173.784 348.412 173.632 348.412C171.96 348.412 170.693 348.564 169.832 348.868C168.971 349.121 168.388 349.628 168.084 350.388C167.831 351.097 167.704 352.187 167.704 353.656V388.844C167.704 390.313 167.831 391.428 168.084 392.188C168.388 392.948 168.971 393.455 169.832 393.708C170.693 393.961 171.96 394.088 173.632 394.088C173.784 394.088 173.86 394.24 173.86 394.544C173.86 394.848 173.784 395 173.632 395C172.315 395 170.744 394.975 168.92 394.924C167.147 394.873 165.348 394.848 163.524 394.848C161.193 394.848 159.167 394.873 157.444 394.924C155.772 394.975 154.277 395 152.96 395C152.808 395 152.732 394.848 152.732 394.544C152.732 394.24 152.808 394.088 152.96 394.088C154.784 394.088 156.152 393.961 157.064 393.708C157.976 393.455 158.559 392.948 158.812 392.188C159.116 391.428 159.268 390.313 159.268 388.844V353.808ZM130.236 371.364V369.236H163.144V371.364H130.236ZM126.284 388.844V353.656C126.284 352.187 126.132 351.097 125.828 350.388C125.575 349.628 125.017 349.121 124.156 348.868C123.345 348.564 122.104 348.412 120.432 348.412C120.28 348.412 120.204 348.26 120.204 347.956C120.204 347.652 120.28 347.5 120.432 347.5C121.749 347.5 123.244 347.551 124.916 347.652C126.588 347.703 128.336 347.728 130.16 347.728C132.491 347.728 134.517 347.703 136.24 347.652C138.013 347.551 139.609 347.5 141.028 347.5C141.129 347.5 141.18 347.652 141.18 347.956C141.18 348.26 141.129 348.412 141.028 348.412C139.255 348.412 137.912 348.564 137 348.868C136.088 349.172 135.48 349.704 135.176 350.464C134.872 351.224 134.72 352.339 134.72 353.808V388.844C134.72 390.313 134.872 391.428 135.176 392.188C135.48 392.948 136.088 393.455 137 393.708C137.912 393.961 139.255 394.088 141.028 394.088C141.129 394.088 141.18 394.24 141.18 394.544C141.18 394.848 141.129 395 141.028 395C139.559 395 137.963 394.975 136.24 394.924C134.517 394.873 132.491 394.848 130.16 394.848C128.336 394.848 126.563 394.873 124.84 394.924C123.117 394.975 121.597 395 120.28 395C120.179 395 120.128 394.848 120.128 394.544C120.128 394.24 120.179 394.088 120.28 394.088C122.003 394.088 123.269 393.961 124.08 393.708C124.941 393.455 125.524 392.948 125.828 392.188C126.132 391.428 126.284 390.313 126.284 388.844ZM194.811 388.844C194.811 390.313 194.938 391.428 195.191 392.188C195.444 392.948 195.951 393.455 196.711 393.708C197.471 393.961 198.636 394.088 200.207 394.088C200.359 394.088 200.435 394.24 200.435 394.544C200.435 394.848 200.359 395 200.207 395C198.89 395 197.42 394.975 195.799 394.924C194.178 394.873 192.404 394.848 190.479 394.848C188.655 394.848 186.907 394.873 185.235 394.924C183.563 394.975 182.068 395 180.751 395C180.65 395 180.599 394.848 180.599 394.544C180.599 394.24 180.65 394.088 180.751 394.088C182.322 394.088 183.487 393.961 184.247 393.708C185.058 393.455 185.59 392.948 185.843 392.188C186.147 391.428 186.299 390.313 186.299 388.844V353.656C186.299 352.187 186.147 351.097 185.843 350.388C185.59 349.628 185.058 349.121 184.247 348.868C183.487 348.564 182.322 348.412 180.751 348.412C180.65 348.412 180.599 348.26 180.599 347.956C180.599 347.652 180.65 347.5 180.751 347.5C182.068 347.5 183.563 347.551 185.235 347.652C186.907 347.703 188.655 347.728 190.479 347.728C192.404 347.728 194.178 347.703 195.799 347.652C197.471 347.551 198.94 347.5 200.207 347.5C200.359 347.5 200.435 347.652 200.435 347.956C200.435 348.26 200.359 348.412 200.207 348.412C198.687 348.412 197.522 348.564 196.711 348.868C195.951 349.172 195.444 349.704 195.191 350.464C194.938 351.224 194.811 352.339 194.811 353.808V388.844ZM213.948 385.348L214.708 349.248L216.912 349.4L216.076 385.348C216.025 388.033 216.557 390.161 217.672 391.732C218.837 393.303 220.458 394.088 222.536 394.088C222.688 394.088 222.764 394.24 222.764 394.544C222.764 394.848 222.688 395 222.536 395C221.421 395 220.281 394.975 219.116 394.924C217.95 394.873 216.633 394.848 215.164 394.848C213.542 394.848 212.073 394.873 210.756 394.924C209.438 394.975 208.222 395 207.108 395C206.956 395 206.88 394.848 206.88 394.544C206.88 394.24 206.956 394.088 207.108 394.088C209.185 394.088 210.832 393.303 212.048 391.732C213.264 390.161 213.897 388.033 213.948 385.348ZM268.364 394.088C268.465 394.088 268.516 394.24 268.516 394.544C268.516 394.848 268.465 395 268.364 395C267.046 395 265.552 394.975 263.88 394.924C262.208 394.873 260.46 394.848 258.636 394.848C256.761 394.848 255.013 394.873 253.392 394.924C251.77 394.975 250.301 395 248.984 395C248.832 395 248.756 394.848 248.756 394.544C248.756 394.24 248.832 394.088 248.984 394.088C251.365 394.088 252.885 393.759 253.544 393.1C254.253 392.441 254.532 391.023 254.38 388.844L252.632 355.1L256.508 349.02L237.128 394.468C237.077 394.671 236.874 394.772 236.52 394.772C236.216 394.772 236.013 394.671 235.912 394.468L214.556 353.808C212.63 350.211 210.325 348.412 207.64 348.412C207.488 348.412 207.412 348.26 207.412 347.956C207.412 347.652 207.488 347.5 207.64 347.5C208.704 347.5 209.818 347.525 210.984 347.576C212.149 347.627 213.137 347.652 213.948 347.652C215.265 347.652 216.405 347.627 217.368 347.576C218.381 347.525 219.166 347.5 219.724 347.5C220.433 347.5 220.965 347.753 221.32 348.26C221.725 348.767 222.358 349.831 223.22 351.452L240.244 383.372L236.444 390.212L254.228 349.4C254.532 348.691 254.836 348.209 255.14 347.956C255.494 347.652 255.95 347.5 256.508 347.5C257.014 347.5 257.546 347.525 258.104 347.576C258.661 347.627 259.32 347.652 260.08 347.652C261.701 347.652 263.069 347.627 264.184 347.576C265.349 347.525 266.489 347.5 267.604 347.5C267.756 347.5 267.832 347.652 267.832 347.956C267.832 348.26 267.756 348.412 267.604 348.412C265.273 348.412 263.55 348.893 262.436 349.856C261.372 350.819 260.89 352.313 260.992 354.34L262.816 388.844C262.917 390.313 263.094 391.428 263.348 392.188C263.652 392.948 264.184 393.455 264.944 393.708C265.704 393.961 266.844 394.088 268.364 394.088ZM288.308 372.276L289.448 370.148H305.104L305.636 372.276H288.308ZM326.232 394.088C326.485 394.088 326.612 394.24 326.612 394.544C326.612 394.848 326.485 395 326.232 395C324.712 395 323.116 394.949 321.444 394.848C319.822 394.747 318.252 394.696 316.732 394.696C315.009 394.696 313.514 394.747 312.248 394.848C310.981 394.949 309.562 395 307.992 395C307.789 395 307.688 394.848 307.688 394.544C307.688 394.24 307.789 394.088 307.992 394.088C310.069 394.088 311.26 393.683 311.564 392.872C311.918 392.011 311.462 390.339 310.196 387.856L294.768 357.38L298.492 350.844L283.368 384.208C282 387.248 281.974 389.655 283.292 391.428C284.609 393.201 286.686 394.088 289.524 394.088C289.777 394.088 289.904 394.24 289.904 394.544C289.904 394.848 289.777 395 289.524 395C288.004 395 286.61 394.949 285.344 394.848C284.077 394.747 282.481 394.696 280.556 394.696C278.58 394.696 276.984 394.747 275.768 394.848C274.602 394.949 273.158 395 271.436 395C271.233 395 271.132 394.848 271.132 394.544C271.132 394.24 271.233 394.088 271.436 394.088C272.804 394.088 273.969 393.809 274.932 393.252C275.945 392.644 276.933 391.58 277.896 390.06C278.909 388.489 280.049 386.285 281.316 383.448L297.808 347.196C297.858 347.044 298.086 346.968 298.492 346.968C298.897 346.917 299.125 346.993 299.176 347.196L318.176 384.588C319.392 386.969 320.43 388.869 321.292 390.288C322.204 391.656 323.04 392.644 323.8 393.252C324.61 393.809 325.421 394.088 326.232 394.088ZM343.85 353.732V388.54C343.85 389.756 343.951 390.693 344.154 391.352C344.357 391.96 344.762 392.365 345.37 392.568C346.029 392.771 346.966 392.872 348.182 392.872H350.766C354.718 392.872 358.138 391.808 361.026 389.68C363.914 387.552 365.839 384.715 366.802 381.168C366.853 381.016 367.005 380.965 367.258 381.016C367.511 381.067 367.638 381.168 367.638 381.32C367.486 382.992 367.334 385.019 367.182 387.4C367.03 389.731 366.954 391.884 366.954 393.86C366.954 394.62 366.574 395 365.814 395H329.942C329.841 395 329.79 394.848 329.79 394.544C329.79 394.24 329.841 394.088 329.942 394.088C331.513 394.088 332.678 393.961 333.438 393.708C334.198 393.455 334.705 392.948 334.958 392.188C335.262 391.428 335.414 390.313 335.414 388.844V353.656C335.414 352.187 335.262 351.097 334.958 350.388C334.705 349.628 334.198 349.121 333.438 348.868C332.678 348.564 331.513 348.412 329.942 348.412C329.841 348.412 329.79 348.26 329.79 347.956C329.79 347.652 329.841 347.5 329.942 347.5C331.158 347.5 332.602 347.551 334.274 347.652C335.997 347.703 337.77 347.728 339.594 347.728C341.519 347.728 343.293 347.703 344.914 347.652C346.535 347.551 347.979 347.5 349.246 347.5C349.398 347.5 349.474 347.652 349.474 347.956C349.474 348.26 349.398 348.412 349.246 348.412C347.726 348.412 346.561 348.564 345.75 348.868C344.99 349.121 344.483 349.628 344.23 350.388C343.977 351.148 343.85 352.263 343.85 353.732ZM387.164 372.276L388.304 370.148H403.96L404.492 372.276H387.164ZM425.088 394.088C425.341 394.088 425.468 394.24 425.468 394.544C425.468 394.848 425.341 395 425.088 395C423.568 395 421.972 394.949 420.3 394.848C418.679 394.747 417.108 394.696 415.588 394.696C413.865 394.696 412.371 394.747 411.104 394.848C409.837 394.949 408.419 395 406.848 395C406.645 395 406.544 394.848 406.544 394.544C406.544 394.24 406.645 394.088 406.848 394.088C408.925 394.088 410.116 393.683 410.42 392.872C410.775 392.011 410.319 390.339 409.052 387.856L393.624 357.38L397.348 350.844L382.224 384.208C380.856 387.248 380.831 389.655 382.148 391.428C383.465 393.201 385.543 394.088 388.38 394.088C388.633 394.088 388.76 394.24 388.76 394.544C388.76 394.848 388.633 395 388.38 395C386.86 395 385.467 394.949 384.2 394.848C382.933 394.747 381.337 394.696 379.412 394.696C377.436 394.696 375.84 394.747 374.624 394.848C373.459 394.949 372.015 395 370.292 395C370.089 395 369.988 394.848 369.988 394.544C369.988 394.24 370.089 394.088 370.292 394.088C371.66 394.088 372.825 393.809 373.788 393.252C374.801 392.644 375.789 391.58 376.752 390.06C377.765 388.489 378.905 386.285 380.172 383.448L396.664 347.196C396.715 347.044 396.943 346.968 397.348 346.968C397.753 346.917 397.981 346.993 398.032 347.196L417.032 384.588C418.248 386.969 419.287 388.869 420.148 390.288C421.06 391.656 421.896 392.644 422.656 393.252C423.467 393.809 424.277 394.088 425.088 394.088ZM446.604 373.872L455.952 357.988C457.624 355.151 458.258 352.845 457.852 351.072C457.498 349.299 456.13 348.412 453.748 348.412C453.596 348.412 453.52 348.26 453.52 347.956C453.52 347.652 453.596 347.5 453.748 347.5C455.37 347.5 456.89 347.551 458.308 347.652C459.727 347.703 461.627 347.728 464.008 347.728C465.275 347.728 466.288 347.703 467.048 347.652C467.859 347.551 468.822 347.5 469.936 347.5C470.038 347.5 470.088 347.652 470.088 347.956C470.088 348.26 470.038 348.412 469.936 348.412C468.923 348.412 467.707 348.868 466.288 349.78C464.87 350.641 463.451 351.832 462.032 353.352C460.614 354.872 459.296 356.645 458.08 358.672L448.2 375.164L446.604 373.872ZM442.196 374.176L430.644 356.24C428.618 353.099 426.996 351.021 425.78 350.008C424.615 348.944 423.627 348.412 422.816 348.412C422.664 348.412 422.588 348.26 422.588 347.956C422.588 347.652 422.664 347.5 422.816 347.5C423.576 347.5 424.362 347.551 425.172 347.652C425.983 347.703 426.768 347.728 427.528 347.728C428.947 347.728 430.467 347.728 432.088 347.728C433.71 347.677 435.23 347.627 436.648 347.576C438.118 347.525 439.308 347.5 440.22 347.5C440.322 347.5 440.372 347.652 440.372 347.956C440.372 348.26 440.322 348.412 440.22 348.412C438.751 348.412 437.864 348.919 437.56 349.932C437.307 350.945 437.636 352.136 438.548 353.504L449.492 370.756L442.196 374.176ZM441.74 371.44L450.176 370.756V388.844C450.176 390.313 450.303 391.428 450.556 392.188C450.81 392.948 451.316 393.455 452.076 393.708C452.836 393.961 454.002 394.088 455.572 394.088C455.724 394.088 455.8 394.24 455.8 394.544C455.8 394.848 455.724 395 455.572 395C454.255 395 452.786 394.975 451.164 394.924C449.594 394.873 447.846 394.848 445.92 394.848C444.096 394.848 442.348 394.873 440.676 394.924C439.004 394.975 437.51 395 436.192 395C436.091 395 436.04 394.848 436.04 394.544C436.04 394.24 436.091 394.088 436.192 394.088C437.763 394.088 438.928 393.961 439.688 393.708C440.499 393.455 441.031 392.948 441.284 392.188C441.588 391.428 441.74 390.313 441.74 388.844V371.44ZM483.571 372.276L484.711 370.148H500.367L500.899 372.276H483.571ZM521.495 394.088C521.749 394.088 521.875 394.24 521.875 394.544C521.875 394.848 521.749 395 521.495 395C519.975 395 518.379 394.949 516.707 394.848C515.086 394.747 513.515 394.696 511.995 394.696C510.273 394.696 508.778 394.747 507.511 394.848C506.245 394.949 504.826 395 503.255 395C503.053 395 502.951 394.848 502.951 394.544C502.951 394.24 503.053 394.088 503.255 394.088C505.333 394.088 506.523 393.683 506.827 392.872C507.182 392.011 506.726 390.339 505.459 387.856L490.031 357.38L493.755 350.844L478.631 384.208C477.263 387.248 477.238 389.655 478.555 391.428C479.873 393.201 481.95 394.088 484.787 394.088C485.041 394.088 485.167 394.24 485.167 394.544C485.167 394.848 485.041 395 484.787 395C483.267 395 481.874 394.949 480.607 394.848C479.341 394.747 477.745 394.696 475.819 394.696C473.843 394.696 472.247 394.747 471.031 394.848C469.866 394.949 468.422 395 466.699 395C466.497 395 466.395 394.848 466.395 394.544C466.395 394.24 466.497 394.088 466.699 394.088C468.067 394.088 469.233 393.809 470.195 393.252C471.209 392.644 472.197 391.58 473.159 390.06C474.173 388.489 475.313 386.285 476.579 383.448L493.071 347.196C493.122 347.044 493.35 346.968 493.755 346.968C494.161 346.917 494.389 346.993 494.439 347.196L513.439 384.588C514.655 386.969 515.694 388.869 516.555 390.288C517.467 391.656 518.303 392.644 519.063 393.252C519.874 393.809 520.685 394.088 521.495 394.088ZM532.578 385.348V349.248L534.858 349.4V385.348C534.858 388.033 535.415 390.161 536.53 391.732C537.644 393.303 539.19 394.088 541.166 394.088C541.267 394.088 541.318 394.24 541.318 394.544C541.318 394.848 541.267 395 541.166 395C540.051 395 538.886 394.975 537.67 394.924C536.504 394.873 535.212 394.848 533.794 394.848C532.274 394.848 530.779 394.873 529.31 394.924C527.891 394.975 526.574 395 525.358 395C525.206 395 525.13 394.848 525.13 394.544C525.13 394.24 525.206 394.088 525.358 394.088C527.587 394.088 529.335 393.303 530.602 391.732C531.919 390.161 532.578 388.033 532.578 385.348ZM571.338 396.14C571.338 396.292 571.211 396.368 570.958 396.368C570.755 396.419 570.603 396.419 570.502 396.368L533.034 353.732C531.21 351.655 529.664 350.261 528.398 349.552C527.131 348.792 525.864 348.412 524.598 348.412C524.496 348.412 524.446 348.26 524.446 347.956C524.446 347.652 524.496 347.5 524.598 347.5C525.611 347.5 526.65 347.525 527.714 347.576C528.778 347.627 529.766 347.652 530.678 347.652C532.502 347.652 534.148 347.627 535.618 347.576C537.087 347.525 538.227 347.5 539.038 347.5C539.696 347.5 540.178 347.804 540.482 348.412C540.836 348.969 541.622 349.983 542.838 351.452L570.73 383.6L571.338 396.14ZM571.338 357.228V396.14L569.134 393.86V357.228C569.134 354.543 568.576 352.415 567.462 350.844C566.347 349.223 564.802 348.412 562.826 348.412C562.724 348.412 562.674 348.26 562.674 347.956C562.674 347.652 562.724 347.5 562.826 347.5C563.94 347.5 565.08 347.551 566.246 347.652C567.462 347.703 568.779 347.728 570.198 347.728C571.566 347.728 572.908 347.703 574.226 347.652C575.543 347.551 576.759 347.5 577.874 347.5C577.975 347.5 578.026 347.652 578.026 347.956C578.026 348.26 577.975 348.412 577.874 348.412C575.847 348.412 574.251 349.223 573.086 350.844C571.92 352.415 571.338 354.543 571.338 357.228Z" fill="#DCD2A3"/>
<path d="M263.116 572V543.636H280.899V547.32H267.396V555.962H279.971V559.632H267.396V568.316H281.065V572H263.116ZM300.794 543.636L308.688 566.737H309.007L316.901 543.636H321.527L311.32 572H306.376L296.168 543.636H300.794ZM337.323 572V543.636H355.105V547.32H341.602V555.962H354.178V559.632H341.602V568.316H355.272V572H337.323ZM395.415 543.636V572H391.482L377.064 551.198H376.801V572H372.522V543.636H376.483L390.914 564.466H391.177V543.636H395.415ZM411.959 547.32V543.636H433.91V547.32H425.06V572H420.795V547.32H411.959Z" fill="#DCD2A3"/>
<path d="M291.875 502.367C289.396 502.367 286.607 502.094 283.508 501.547C280.409 501 277.31 500.344 274.211 499.578C271.148 498.776 268.396 498.029 265.953 497.336C260.266 499.852 253.958 501.109 247.031 501.109C242.911 501.109 239.867 500.635 237.898 499.688C235.966 498.74 235 497.719 235 496.625C235 494.911 236.13 493.562 238.391 492.578C240.651 491.557 243.604 491.047 247.25 491.047C249.984 491.047 252.773 491.375 255.617 492.031C258.497 492.688 261.669 493.635 265.133 494.875C267.94 493.052 270.857 490.5 273.883 487.219C276.909 483.901 280.336 479.635 284.164 474.422C276.617 474.167 270.547 472.526 265.953 469.5C261.359 466.438 259.062 462.536 259.062 457.797C259.062 454.661 260.065 451.617 262.07 448.664C264.112 445.674 266.755 443.214 270 441.281C273.281 439.349 276.799 438.383 280.555 438.383C281.174 438.383 281.521 438.474 281.594 438.656C281.703 438.802 281.758 438.93 281.758 439.039C281.758 439.221 281.685 439.367 281.539 439.477C281.393 439.549 280.883 439.622 280.008 439.695C276.253 440.06 273.117 441.135 270.602 442.922C268.122 444.672 266.263 446.768 265.023 449.211C263.784 451.654 263.164 454.078 263.164 456.484C263.164 462.099 265.169 466.219 269.18 468.844C273.19 471.432 278.568 472.763 285.312 472.836C286.479 471.232 287.664 469.536 288.867 467.75C290.107 465.964 291.401 464.068 292.75 462.062C298.839 452.984 304.526 445.693 309.812 440.188C315.135 434.646 320.312 430.635 325.344 428.156C330.375 425.641 335.497 424.383 340.711 424.383C343.409 424.383 345.596 424.984 347.273 426.188C348.951 427.391 349.789 428.995 349.789 431C349.789 434.062 348.604 437.38 346.234 440.953C343.901 444.526 340.729 448.081 336.719 451.617C332.745 455.154 328.26 458.471 323.266 461.57C318.271 464.669 313.112 467.312 307.789 469.5C302.466 471.651 297.326 473.109 292.367 473.875C288.393 479.198 284.456 483.701 280.555 487.383C276.654 491.029 272.625 493.945 268.469 496.133C271.604 497.263 275.104 498.138 278.969 498.758C282.87 499.378 287.299 499.688 292.258 499.688C296.341 499.688 299.622 499.305 302.102 498.539C304.581 497.737 306.44 496.88 307.68 495.969C308.956 495.057 309.776 494.419 310.141 494.055C310.688 493.508 311.052 493.435 311.234 493.836C311.344 494.091 311.289 494.419 311.07 494.82C310.888 495.185 310.651 495.513 310.359 495.805C307.406 498.466 304.38 500.216 301.281 501.055C298.182 501.93 295.047 502.367 291.875 502.367ZM293.68 472.125C298.492 471.286 303.378 469.792 308.336 467.641C313.294 465.49 318.016 462.919 322.5 459.93C327.021 456.94 331.049 453.75 334.586 450.359C338.159 446.969 340.966 443.578 343.008 440.188C345.086 436.797 346.125 433.625 346.125 430.672C346.125 429.396 345.578 428.247 344.484 427.227C343.391 426.169 342.023 425.641 340.383 425.641C334.513 425.641 328.716 428.01 322.992 432.75C317.305 437.453 311.781 444.161 306.422 452.875C304.198 456.521 302.029 459.948 299.914 463.156C297.799 466.365 295.721 469.354 293.68 472.125ZM246.266 499.797C249.401 499.797 252.281 499.56 254.906 499.086C257.531 498.612 260.12 497.701 262.672 496.352C260.229 495.659 257.659 495.076 254.961 494.602C252.299 494.091 249.875 493.836 247.688 493.836C240.25 493.836 236.531 494.747 236.531 496.57C236.531 497.154 237.388 497.846 239.102 498.648C240.852 499.414 243.24 499.797 246.266 499.797ZM324.795 501.109C322.425 501.109 320.73 500.526 319.709 499.359C318.688 498.193 318.159 496.935 318.123 495.586C317.977 492.888 318.998 489.953 321.185 486.781C323.336 483.609 326.435 479.654 330.482 474.914C331.904 473.237 333.381 471.432 334.912 469.5C336.48 467.568 338.102 465.69 339.779 463.867C341.019 464.086 342.477 464.195 344.154 464.195C344.664 464.195 345.375 464.177 346.287 464.141C347.198 464.104 347.8 464.068 348.092 464.031C344.993 467.349 341.894 470.849 338.795 474.531C335.696 478.214 332.925 481.549 330.482 484.539C329.68 485.523 328.641 486.763 327.365 488.258C326.089 489.716 324.959 491.284 323.974 492.961C323.026 494.602 322.571 496.206 322.607 497.773C322.607 498.284 322.789 498.74 323.154 499.141C323.519 499.542 324.211 499.742 325.232 499.742C325.961 499.742 327.092 499.505 328.623 499.031C330.191 498.557 331.849 497.755 333.599 496.625C336.042 494.984 338.813 492.742 341.912 489.898C345.011 487.018 348.383 483.318 352.029 478.797C352.831 477.812 353.487 477.01 353.998 476.391C354.508 475.771 354.982 475.206 355.42 474.695C356.696 473.128 358.081 471.451 359.576 469.664C361.071 467.878 362.693 465.945 364.443 463.867C365.61 463.977 366.43 464.068 366.904 464.141C367.378 464.177 368.016 464.195 368.818 464.195C370.532 464.195 371.844 464.141 372.756 464.031C370.605 466.365 368.144 469.19 365.373 472.508C362.638 475.826 359.922 479.161 357.224 482.516C354.526 485.833 352.157 488.75 350.115 491.266C348.365 493.307 347.253 494.711 346.779 495.477C346.342 496.206 346.123 496.917 346.123 497.609C346.159 498.047 346.305 498.484 346.56 498.922C346.852 499.359 347.654 499.578 348.967 499.578C350.899 499.578 352.995 498.94 355.256 497.664C357.552 496.388 359.813 494.802 362.037 492.906C364.297 490.974 366.394 489.005 368.326 487C370.295 484.995 371.954 483.227 373.302 481.695C374.651 480.164 375.526 479.198 375.927 478.797L377.021 479.727C376.584 480.201 375.654 481.221 374.232 482.789C372.847 484.357 371.133 486.18 369.092 488.258C367.05 490.299 364.844 492.305 362.474 494.273C360.141 496.242 357.771 497.883 355.365 499.195C352.959 500.471 350.698 501.109 348.584 501.109C347.125 501.109 345.904 500.708 344.92 499.906C343.935 499.068 343.425 497.919 343.388 496.461C343.352 495.148 343.534 493.781 343.935 492.359C344.373 490.938 345.102 489.333 346.123 487.547C341.566 492.469 337.482 496.023 333.873 498.211C332.013 499.341 330.318 500.107 328.787 500.508C327.256 500.909 325.925 501.109 324.795 501.109ZM371.878 501.109C370.128 501.109 368.925 500.854 368.269 500.344C367.576 499.833 367.23 499.122 367.23 498.211C367.23 497.591 367.558 497.008 368.214 496.461C368.871 495.914 369.654 495.641 370.566 495.641C371.259 495.641 372.006 495.914 372.808 496.461C373.647 497.081 374.376 497.391 374.996 497.391C378.459 497.391 382.178 495.549 386.152 491.867C390.162 488.148 393.753 483.263 396.925 477.211C398.529 474.878 399.532 473.055 399.933 471.742C400.371 470.43 400.589 469.208 400.589 468.078C400.589 466.182 399.733 465.234 398.019 465.234C396.816 465.234 395.467 465.562 393.972 466.219C392.514 466.839 390.636 468.188 388.339 470.266C386.079 472.307 383.071 475.461 379.316 479.727C379.024 479.799 378.696 479.672 378.332 479.344C378.149 479.161 378.095 478.979 378.167 478.797C382.141 474.349 385.332 471.049 387.738 468.898C390.181 466.711 392.204 465.271 393.808 464.578C395.449 463.885 397.053 463.539 398.621 463.539C400.699 463.539 402.339 464.195 403.542 465.508C404.746 466.82 405.347 468.661 405.347 471.031C405.347 472.271 405.019 474.021 404.363 476.281C406.04 474.057 407.917 471.979 409.996 470.047C412.11 468.115 414.298 466.547 416.558 465.344C418.819 464.141 421.006 463.539 423.121 463.539C425.053 463.539 426.384 463.995 427.113 464.906C427.842 465.781 428.207 466.638 428.207 467.477C428.207 468.607 427.86 469.445 427.167 469.992C426.475 470.503 425.782 470.758 425.089 470.758C422.61 470.758 421.279 469.263 421.097 466.273C420.842 466.237 420.532 466.219 420.167 466.219C418.636 466.219 416.777 466.966 414.589 468.461C412.402 469.956 410.141 472.016 407.808 474.641C405.511 477.266 403.397 480.255 401.464 483.609C401.209 484.193 400.917 484.776 400.589 485.359C400.261 485.906 399.933 486.49 399.605 487.109C398.548 489.37 397.819 491.229 397.417 492.688C397.053 494.146 396.871 495.422 396.871 496.516C396.871 497.646 397.217 498.448 397.91 498.922C398.602 499.359 399.459 499.578 400.48 499.578C402.704 499.578 405.037 498.904 407.48 497.555C409.923 496.206 412.311 494.529 414.644 492.523C416.977 490.482 419.11 488.44 421.042 486.398C422.975 484.357 424.524 482.607 425.691 481.148C426.894 479.69 427.569 478.888 427.714 478.742L428.863 479.727C428.681 479.872 427.951 480.693 426.675 482.188C425.399 483.682 423.74 485.487 421.699 487.602C419.694 489.68 417.433 491.758 414.917 493.836C412.438 495.914 409.886 497.646 407.261 499.031C404.673 500.417 402.175 501.109 399.769 501.109C397.764 501.109 395.941 500.49 394.3 499.25C392.696 497.974 391.894 495.841 391.894 492.852C391.894 491.284 392.332 489.115 393.207 486.344C389.561 491.375 385.714 495.094 381.667 497.5C377.621 499.906 374.358 501.109 371.878 501.109ZM433.947 501.328C430.374 501.328 427.822 500.398 426.29 498.539C424.759 496.68 423.957 494.401 423.884 491.703C423.848 489.734 424.249 487.547 425.087 485.141C425.926 482.734 426.801 480.893 427.712 479.617C430.41 475.862 433.327 472.799 436.462 470.43C439.598 468.06 442.66 466.328 445.65 465.234C448.676 464.104 451.337 463.539 453.634 463.539C455.858 463.539 457.408 463.904 458.283 464.633C459.194 465.362 459.668 466.201 459.704 467.148C459.814 468.57 459.048 470.229 457.408 472.125C455.803 473.984 452.978 476.008 448.931 478.195C444.884 480.383 439.233 482.68 431.978 485.086C430.702 487.128 429.845 488.896 429.408 490.391C428.97 491.849 428.751 493.161 428.751 494.328C428.751 496.042 429.316 497.372 430.447 498.32C431.613 499.268 432.98 499.742 434.548 499.742C437.975 499.742 441.184 499.104 444.173 497.828C447.199 496.516 449.952 494.875 452.431 492.906C454.947 490.938 457.152 488.951 459.048 486.945C460.944 484.904 462.493 483.135 463.697 481.641C464.9 480.109 465.702 479.161 466.103 478.797L467.251 479.727C466.704 480.201 465.775 481.24 464.462 482.844C463.186 484.448 461.546 486.289 459.54 488.367C457.572 490.445 455.293 492.469 452.704 494.438C450.116 496.406 447.236 498.047 444.064 499.359C440.928 500.672 437.556 501.328 433.947 501.328ZM433.236 483.172C440.309 480.693 445.887 478.141 449.97 475.516C454.053 472.854 456.095 470.32 456.095 467.914C456.095 465.872 455.147 464.852 453.251 464.852C450.809 464.852 448.165 466.164 445.322 468.789C442.478 471.414 439.16 475.224 435.368 480.219C434.566 481.24 433.855 482.224 433.236 483.172Z" fill="#C2AC5F"/>
</svg>
