<svg width="538" height="473" viewBox="0 0 538 473" fill="none" xmlns="http://www.w3.org/2000/svg">
<path d="M382.5 185H156.5V194H382.5V185Z" fill="#CDB55E"/>
<path d="M329.5 168.5C326.82 164.671 307.526 146.615 297.857 136.868C297.542 136.551 297.111 136.761 297.246 137.188C298.623 141.544 305.244 152.898 303 152C293.8 146.4 293.167 147.667 294 149C302 160.5 333 173.5 329.5 168.5Z" fill="#CDB55E"/>
<path d="M331.5 135L321.5 139.5C328.3 145.1 342 154.5 347.5 158C339.1 150.4 331.5 135 331.5 135Z" fill="#CDB55E"/>
<path d="M200.768 143.373C194.727 142.858 175.566 164.444 172.189 169.226C198.804 158.599 203.9 152.26 202.383 145.374C202.18 144.452 201.708 143.454 200.768 143.373Z" fill="#CDB55E"/>
<path d="M268 88.5C263.2 95.7 220.333 142.5 199.5 165C203.9 163.4 230.667 146 243.5 137.5L222.5 169L262 146L254 161L273.5 141.5L281 146C280.6 144 273.833 132.5 270.5 127C262.9 132.6 253.333 137 249.5 138.5C262 123.5 268 110.5 270.5 100C278.9 106.4 283 109.667 284 110.5C277 103.5 271.5 94.3333 268 88.5Z" fill="#CDB55E"/>
<path d="M269.5 0C255 17.5 253.5 24.5 261.5 38.5V47.5C259 43 252.3 34 245.5 34C233 34 227 53.5 243.5 57C241 49.5 254 40.5 261.5 56.5V69.8464C261.5 70.2711 261.374 70.6734 261.121 71.015C247.531 89.4073 217.612 120.544 210.505 127.574C209.569 128.5 208.269 128.708 207.046 128.219L196.5 124L176.843 143.657C175.343 145.157 173.308 146 171.186 146H171.07C169.399 146 167.744 145.477 166.425 144.451C135.618 120.47 149.819 85.8726 164.5 103C171 90.5 157.7 74.1 142.5 96.5C142.5 88.5 144 69.5 120.5 70.5C135.5 103 152.5 156.5 154 170C161.833 165.333 181 150.7 197 131.5L209.755 136.967C210.507 137.289 211.366 137.134 211.944 136.555C229.745 118.702 264.097 82.8499 269.5 74.5L269.5 0Z" fill="#CDB55E"/>
<path d="M269.5 0C284 17.5 285.5 24.5 277.5 38.5V47.5C280 43 286.7 34 293.5 34C306 34 312 53.5 295.5 57C298 49.5 285 40.5 277.5 56.5V69.8464C277.5 70.2711 277.63 70.6775 277.882 71.0193C291.035 88.8611 314.578 114.052 321.239 120.799C322.298 121.872 323.828 122.032 325.141 121.29L334.5 116L362.157 143.657C363.657 145.157 365.692 146 367.814 146H367.93C369.601 146 371.256 145.477 372.575 144.451C403.382 120.47 389.181 85.8726 374.5 103C368 90.5 381.3 74.1 396.5 96.5C396.5 88.5 395 69.5 418.5 70.5C403.5 103 386.5 156.5 385 170C377.167 165.333 349.5 143.7 333.5 124.5L321.255 129.942C320.499 130.278 319.621 130.122 319.038 129.535C301.509 111.918 274.9 82.8457 269.5 74.5L269.5 0Z" fill="#CDB55E"/>
<path d="M263.5 9.5L269.5 0L271 3L272.5 5L274 9.5L276 81.5L271 76L270 75L269.5 74.5L269 75L262.5 81.5L263.5 9.5Z" fill="#CDB55E"/>
<path d="M80.268 242.808C80.268 241.339 80.116 240.224 79.812 239.464C79.5587 238.704 78.976 238.172 78.064 237.868C77.152 237.564 75.784 237.412 73.96 237.412C73.808 237.412 73.732 237.26 73.732 236.956C73.732 236.652 73.808 236.5 73.96 236.5C75.2773 236.5 76.772 236.551 78.444 236.652C80.1667 236.703 82.1933 236.728 84.524 236.728C86.348 236.728 88.1467 236.703 89.92 236.652C91.744 236.551 93.3147 236.5 94.632 236.5C94.784 236.5 94.86 236.652 94.86 236.956C94.86 237.26 94.784 237.412 94.632 237.412C92.96 237.412 91.6933 237.564 90.832 237.868C89.9707 238.121 89.388 238.628 89.084 239.388C88.8307 240.097 88.704 241.187 88.704 242.656V277.844C88.704 279.313 88.8307 280.428 89.084 281.188C89.388 281.948 89.9707 282.455 90.832 282.708C91.6933 282.961 92.96 283.088 94.632 283.088C94.784 283.088 94.86 283.24 94.86 283.544C94.86 283.848 94.784 284 94.632 284C93.3147 284 91.744 283.975 89.92 283.924C88.1467 283.873 86.348 283.848 84.524 283.848C82.1933 283.848 80.1667 283.873 78.444 283.924C76.772 283.975 75.2773 284 73.96 284C73.808 284 73.732 283.848 73.732 283.544C73.732 283.24 73.808 283.088 73.96 283.088C75.784 283.088 77.152 282.961 78.064 282.708C78.976 282.455 79.5587 281.948 79.812 281.188C80.116 280.428 80.268 279.313 80.268 277.844V242.808ZM51.236 260.364V258.236H84.144V260.364H51.236ZM47.284 277.844V242.656C47.284 241.187 47.132 240.097 46.828 239.388C46.5747 238.628 46.0173 238.121 45.156 237.868C44.3453 237.564 43.104 237.412 41.432 237.412C41.28 237.412 41.204 237.26 41.204 236.956C41.204 236.652 41.28 236.5 41.432 236.5C42.7493 236.5 44.244 236.551 45.916 236.652C47.588 236.703 49.336 236.728 51.16 236.728C53.4907 236.728 55.5173 236.703 57.24 236.652C59.0133 236.551 60.6093 236.5 62.028 236.5C62.1293 236.5 62.18 236.652 62.18 236.956C62.18 237.26 62.1293 237.412 62.028 237.412C60.2547 237.412 58.912 237.564 58 237.868C57.088 238.172 56.48 238.704 56.176 239.464C55.872 240.224 55.72 241.339 55.72 242.808V277.844C55.72 279.313 55.872 280.428 56.176 281.188C56.48 281.948 57.088 282.455 58 282.708C58.912 282.961 60.2547 283.088 62.028 283.088C62.1293 283.088 62.18 283.24 62.18 283.544C62.18 283.848 62.1293 284 62.028 284C60.5587 284 58.9627 283.975 57.24 283.924C55.5173 283.873 53.4907 283.848 51.16 283.848C49.336 283.848 47.5627 283.873 45.84 283.924C44.1173 283.975 42.5973 284 41.28 284C41.1787 284 41.128 283.848 41.128 283.544C41.128 283.24 41.1787 283.088 41.28 283.088C43.0027 283.088 44.2693 282.961 45.08 282.708C45.9413 282.455 46.524 281.948 46.828 281.188C47.132 280.428 47.284 279.313 47.284 277.844ZM115.811 277.844C115.811 279.313 115.938 280.428 116.191 281.188C116.444 281.948 116.951 282.455 117.711 282.708C118.471 282.961 119.636 283.088 121.207 283.088C121.359 283.088 121.435 283.24 121.435 283.544C121.435 283.848 121.359 284 121.207 284C119.89 284 118.42 283.975 116.799 283.924C115.178 283.873 113.404 283.848 111.479 283.848C109.655 283.848 107.907 283.873 106.235 283.924C104.563 283.975 103.068 284 101.751 284C101.65 284 101.599 283.848 101.599 283.544C101.599 283.24 101.65 283.088 101.751 283.088C103.322 283.088 104.487 282.961 105.247 282.708C106.058 282.455 106.59 281.948 106.843 281.188C107.147 280.428 107.299 279.313 107.299 277.844V242.656C107.299 241.187 107.147 240.097 106.843 239.388C106.59 238.628 106.058 238.121 105.247 237.868C104.487 237.564 103.322 237.412 101.751 237.412C101.65 237.412 101.599 237.26 101.599 236.956C101.599 236.652 101.65 236.5 101.751 236.5C103.068 236.5 104.563 236.551 106.235 236.652C107.907 236.703 109.655 236.728 111.479 236.728C113.404 236.728 115.178 236.703 116.799 236.652C118.471 236.551 119.94 236.5 121.207 236.5C121.359 236.5 121.435 236.652 121.435 236.956C121.435 237.26 121.359 237.412 121.207 237.412C119.687 237.412 118.522 237.564 117.711 237.868C116.951 238.172 116.444 238.704 116.191 239.464C115.938 240.224 115.811 241.339 115.811 242.808V277.844ZM134.948 274.348L135.708 238.248L137.912 238.4L137.076 274.348C137.025 277.033 137.557 279.161 138.672 280.732C139.837 282.303 141.458 283.088 143.536 283.088C143.688 283.088 143.764 283.24 143.764 283.544C143.764 283.848 143.688 284 143.536 284C142.421 284 141.281 283.975 140.116 283.924C138.95 283.873 137.633 283.848 136.164 283.848C134.542 283.848 133.073 283.873 131.756 283.924C130.438 283.975 129.222 284 128.108 284C127.956 284 127.88 283.848 127.88 283.544C127.88 283.24 127.956 283.088 128.108 283.088C130.185 283.088 131.832 282.303 133.048 280.732C134.264 279.161 134.897 277.033 134.948 274.348ZM189.364 283.088C189.465 283.088 189.516 283.24 189.516 283.544C189.516 283.848 189.465 284 189.364 284C188.046 284 186.552 283.975 184.88 283.924C183.208 283.873 181.46 283.848 179.636 283.848C177.761 283.848 176.013 283.873 174.392 283.924C172.77 283.975 171.301 284 169.984 284C169.832 284 169.756 283.848 169.756 283.544C169.756 283.24 169.832 283.088 169.984 283.088C172.365 283.088 173.885 282.759 174.544 282.1C175.253 281.441 175.532 280.023 175.38 277.844L173.632 244.1L177.508 238.02L158.128 283.468C158.077 283.671 157.874 283.772 157.52 283.772C157.216 283.772 157.013 283.671 156.912 283.468L135.556 242.808C133.63 239.211 131.325 237.412 128.64 237.412C128.488 237.412 128.412 237.26 128.412 236.956C128.412 236.652 128.488 236.5 128.64 236.5C129.704 236.5 130.818 236.525 131.984 236.576C133.149 236.627 134.137 236.652 134.948 236.652C136.265 236.652 137.405 236.627 138.368 236.576C139.381 236.525 140.166 236.5 140.724 236.5C141.433 236.5 141.965 236.753 142.32 237.26C142.725 237.767 143.358 238.831 144.22 240.452L161.244 272.372L157.444 279.212L175.228 238.4C175.532 237.691 175.836 237.209 176.14 236.956C176.494 236.652 176.95 236.5 177.508 236.5C178.014 236.5 178.546 236.525 179.104 236.576C179.661 236.627 180.32 236.652 181.08 236.652C182.701 236.652 184.069 236.627 185.184 236.576C186.349 236.525 187.489 236.5 188.604 236.5C188.756 236.5 188.832 236.652 188.832 236.956C188.832 237.26 188.756 237.412 188.604 237.412C186.273 237.412 184.55 237.893 183.436 238.856C182.372 239.819 181.89 241.313 181.992 243.34L183.816 277.844C183.917 279.313 184.094 280.428 184.348 281.188C184.652 281.948 185.184 282.455 185.944 282.708C186.704 282.961 187.844 283.088 189.364 283.088ZM209.308 261.276L210.448 259.148H226.104L226.636 261.276H209.308ZM247.232 283.088C247.485 283.088 247.612 283.24 247.612 283.544C247.612 283.848 247.485 284 247.232 284C245.712 284 244.116 283.949 242.444 283.848C240.822 283.747 239.252 283.696 237.732 283.696C236.009 283.696 234.514 283.747 233.248 283.848C231.981 283.949 230.562 284 228.992 284C228.789 284 228.688 283.848 228.688 283.544C228.688 283.24 228.789 283.088 228.992 283.088C231.069 283.088 232.26 282.683 232.564 281.872C232.918 281.011 232.462 279.339 231.196 276.856L215.768 246.38L219.492 239.844L204.368 273.208C203 276.248 202.974 278.655 204.292 280.428C205.609 282.201 207.686 283.088 210.524 283.088C210.777 283.088 210.904 283.24 210.904 283.544C210.904 283.848 210.777 284 210.524 284C209.004 284 207.61 283.949 206.344 283.848C205.077 283.747 203.481 283.696 201.556 283.696C199.58 283.696 197.984 283.747 196.768 283.848C195.602 283.949 194.158 284 192.436 284C192.233 284 192.132 283.848 192.132 283.544C192.132 283.24 192.233 283.088 192.436 283.088C193.804 283.088 194.969 282.809 195.932 282.252C196.945 281.644 197.933 280.58 198.896 279.06C199.909 277.489 201.049 275.285 202.316 272.448L218.808 236.196C218.858 236.044 219.086 235.968 219.492 235.968C219.897 235.917 220.125 235.993 220.176 236.196L239.176 273.588C240.392 275.969 241.43 277.869 242.292 279.288C243.204 280.656 244.04 281.644 244.8 282.252C245.61 282.809 246.421 283.088 247.232 283.088ZM264.85 242.732V277.54C264.85 278.756 264.951 279.693 265.154 280.352C265.357 280.96 265.762 281.365 266.37 281.568C267.029 281.771 267.966 281.872 269.182 281.872H271.766C275.718 281.872 279.138 280.808 282.026 278.68C284.914 276.552 286.839 273.715 287.802 270.168C287.853 270.016 288.005 269.965 288.258 270.016C288.511 270.067 288.638 270.168 288.638 270.32C288.486 271.992 288.334 274.019 288.182 276.4C288.03 278.731 287.954 280.884 287.954 282.86C287.954 283.62 287.574 284 286.814 284H250.942C250.841 284 250.79 283.848 250.79 283.544C250.79 283.24 250.841 283.088 250.942 283.088C252.513 283.088 253.678 282.961 254.438 282.708C255.198 282.455 255.705 281.948 255.958 281.188C256.262 280.428 256.414 279.313 256.414 277.844V242.656C256.414 241.187 256.262 240.097 255.958 239.388C255.705 238.628 255.198 238.121 254.438 237.868C253.678 237.564 252.513 237.412 250.942 237.412C250.841 237.412 250.79 237.26 250.79 236.956C250.79 236.652 250.841 236.5 250.942 236.5C252.158 236.5 253.602 236.551 255.274 236.652C256.997 236.703 258.77 236.728 260.594 236.728C262.519 236.728 264.293 236.703 265.914 236.652C267.535 236.551 268.979 236.5 270.246 236.5C270.398 236.5 270.474 236.652 270.474 236.956C270.474 237.26 270.398 237.412 270.246 237.412C268.726 237.412 267.561 237.564 266.75 237.868C265.99 238.121 265.483 238.628 265.23 239.388C264.977 240.148 264.85 241.263 264.85 242.732ZM308.164 261.276L309.304 259.148H324.96L325.492 261.276H308.164ZM346.088 283.088C346.341 283.088 346.468 283.24 346.468 283.544C346.468 283.848 346.341 284 346.088 284C344.568 284 342.972 283.949 341.3 283.848C339.679 283.747 338.108 283.696 336.588 283.696C334.865 283.696 333.371 283.747 332.104 283.848C330.837 283.949 329.419 284 327.848 284C327.645 284 327.544 283.848 327.544 283.544C327.544 283.24 327.645 283.088 327.848 283.088C329.925 283.088 331.116 282.683 331.42 281.872C331.775 281.011 331.319 279.339 330.052 276.856L314.624 246.38L318.348 239.844L303.224 273.208C301.856 276.248 301.831 278.655 303.148 280.428C304.465 282.201 306.543 283.088 309.38 283.088C309.633 283.088 309.76 283.24 309.76 283.544C309.76 283.848 309.633 284 309.38 284C307.86 284 306.467 283.949 305.2 283.848C303.933 283.747 302.337 283.696 300.412 283.696C298.436 283.696 296.84 283.747 295.624 283.848C294.459 283.949 293.015 284 291.292 284C291.089 284 290.988 283.848 290.988 283.544C290.988 283.24 291.089 283.088 291.292 283.088C292.66 283.088 293.825 282.809 294.788 282.252C295.801 281.644 296.789 280.58 297.752 279.06C298.765 277.489 299.905 275.285 301.172 272.448L317.664 236.196C317.715 236.044 317.943 235.968 318.348 235.968C318.753 235.917 318.981 235.993 319.032 236.196L338.032 273.588C339.248 275.969 340.287 277.869 341.148 279.288C342.06 280.656 342.896 281.644 343.656 282.252C344.467 282.809 345.277 283.088 346.088 283.088ZM367.604 262.872L376.952 246.988C378.624 244.151 379.258 241.845 378.852 240.072C378.498 238.299 377.13 237.412 374.748 237.412C374.596 237.412 374.52 237.26 374.52 236.956C374.52 236.652 374.596 236.5 374.748 236.5C376.37 236.5 377.89 236.551 379.308 236.652C380.727 236.703 382.627 236.728 385.008 236.728C386.275 236.728 387.288 236.703 388.048 236.652C388.859 236.551 389.822 236.5 390.936 236.5C391.038 236.5 391.088 236.652 391.088 236.956C391.088 237.26 391.038 237.412 390.936 237.412C389.923 237.412 388.707 237.868 387.288 238.78C385.87 239.641 384.451 240.832 383.032 242.352C381.614 243.872 380.296 245.645 379.08 247.672L369.2 264.164L367.604 262.872ZM363.196 263.176L351.644 245.24C349.618 242.099 347.996 240.021 346.78 239.008C345.615 237.944 344.627 237.412 343.816 237.412C343.664 237.412 343.588 237.26 343.588 236.956C343.588 236.652 343.664 236.5 343.816 236.5C344.576 236.5 345.362 236.551 346.172 236.652C346.983 236.703 347.768 236.728 348.528 236.728C349.947 236.728 351.467 236.728 353.088 236.728C354.71 236.677 356.23 236.627 357.648 236.576C359.118 236.525 360.308 236.5 361.22 236.5C361.322 236.5 361.372 236.652 361.372 236.956C361.372 237.26 361.322 237.412 361.22 237.412C359.751 237.412 358.864 237.919 358.56 238.932C358.307 239.945 358.636 241.136 359.548 242.504L370.492 259.756L363.196 263.176ZM362.74 260.44L371.176 259.756V277.844C371.176 279.313 371.303 280.428 371.556 281.188C371.81 281.948 372.316 282.455 373.076 282.708C373.836 282.961 375.002 283.088 376.572 283.088C376.724 283.088 376.8 283.24 376.8 283.544C376.8 283.848 376.724 284 376.572 284C375.255 284 373.786 283.975 372.164 283.924C370.594 283.873 368.846 283.848 366.92 283.848C365.096 283.848 363.348 283.873 361.676 283.924C360.004 283.975 358.51 284 357.192 284C357.091 284 357.04 283.848 357.04 283.544C357.04 283.24 357.091 283.088 357.192 283.088C358.763 283.088 359.928 282.961 360.688 282.708C361.499 282.455 362.031 281.948 362.284 281.188C362.588 280.428 362.74 279.313 362.74 277.844V260.44ZM404.571 261.276L405.711 259.148H421.367L421.899 261.276H404.571ZM442.495 283.088C442.749 283.088 442.875 283.24 442.875 283.544C442.875 283.848 442.749 284 442.495 284C440.975 284 439.379 283.949 437.707 283.848C436.086 283.747 434.515 283.696 432.995 283.696C431.273 283.696 429.778 283.747 428.511 283.848C427.245 283.949 425.826 284 424.255 284C424.053 284 423.951 283.848 423.951 283.544C423.951 283.24 424.053 283.088 424.255 283.088C426.333 283.088 427.523 282.683 427.827 281.872C428.182 281.011 427.726 279.339 426.459 276.856L411.031 246.38L414.755 239.844L399.631 273.208C398.263 276.248 398.238 278.655 399.555 280.428C400.873 282.201 402.95 283.088 405.787 283.088C406.041 283.088 406.167 283.24 406.167 283.544C406.167 283.848 406.041 284 405.787 284C404.267 284 402.874 283.949 401.607 283.848C400.341 283.747 398.745 283.696 396.819 283.696C394.843 283.696 393.247 283.747 392.031 283.848C390.866 283.949 389.422 284 387.699 284C387.497 284 387.395 283.848 387.395 283.544C387.395 283.24 387.497 283.088 387.699 283.088C389.067 283.088 390.233 282.809 391.195 282.252C392.209 281.644 393.197 280.58 394.159 279.06C395.173 277.489 396.313 275.285 397.579 272.448L414.071 236.196C414.122 236.044 414.35 235.968 414.755 235.968C415.161 235.917 415.389 235.993 415.439 236.196L434.439 273.588C435.655 275.969 436.694 277.869 437.555 279.288C438.467 280.656 439.303 281.644 440.063 282.252C440.874 282.809 441.685 283.088 442.495 283.088ZM453.578 274.348V238.248L455.858 238.4V274.348C455.858 277.033 456.415 279.161 457.53 280.732C458.644 282.303 460.19 283.088 462.166 283.088C462.267 283.088 462.318 283.24 462.318 283.544C462.318 283.848 462.267 284 462.166 284C461.051 284 459.886 283.975 458.67 283.924C457.504 283.873 456.212 283.848 454.794 283.848C453.274 283.848 451.779 283.873 450.31 283.924C448.891 283.975 447.574 284 446.358 284C446.206 284 446.13 283.848 446.13 283.544C446.13 283.24 446.206 283.088 446.358 283.088C448.587 283.088 450.335 282.303 451.602 280.732C452.919 279.161 453.578 277.033 453.578 274.348ZM492.338 285.14C492.338 285.292 492.211 285.368 491.958 285.368C491.755 285.419 491.603 285.419 491.502 285.368L454.034 242.732C452.21 240.655 450.664 239.261 449.398 238.552C448.131 237.792 446.864 237.412 445.598 237.412C445.496 237.412 445.446 237.26 445.446 236.956C445.446 236.652 445.496 236.5 445.598 236.5C446.611 236.5 447.65 236.525 448.714 236.576C449.778 236.627 450.766 236.652 451.678 236.652C453.502 236.652 455.148 236.627 456.618 236.576C458.087 236.525 459.227 236.5 460.038 236.5C460.696 236.5 461.178 236.804 461.482 237.412C461.836 237.969 462.622 238.983 463.838 240.452L491.73 272.6L492.338 285.14ZM492.338 246.228V285.14L490.134 282.86V246.228C490.134 243.543 489.576 241.415 488.462 239.844C487.347 238.223 485.802 237.412 483.826 237.412C483.724 237.412 483.674 237.26 483.674 236.956C483.674 236.652 483.724 236.5 483.826 236.5C484.94 236.5 486.08 236.551 487.246 236.652C488.462 236.703 489.779 236.728 491.198 236.728C492.566 236.728 493.908 236.703 495.226 236.652C496.543 236.551 497.759 236.5 498.874 236.5C498.975 236.5 499.026 236.652 499.026 236.956C499.026 237.26 498.975 237.412 498.874 237.412C496.847 237.412 495.251 238.223 494.086 239.844C492.92 241.415 492.338 243.543 492.338 246.228Z" fill="#DCD2A3"/>
<path d="M184.116 461V432.636H201.899V436.32H188.396V444.962H200.971V448.632H188.396V457.316H202.065V461H184.116ZM221.794 432.636L229.688 455.737H230.007L237.901 432.636H242.527L232.32 461H227.376L217.168 432.636H221.794ZM258.323 461V432.636H276.105V436.32H262.602V444.962H275.178V448.632H262.602V457.316H276.272V461H258.323ZM316.415 432.636V461H312.482L298.064 440.198H297.801V461H293.522V432.636H297.483L311.914 453.466H312.177V432.636H316.415ZM332.959 436.32V432.636H354.91V436.32H346.06V461H341.795V436.32H332.959Z" fill="#DCD2A3"/>
<path d="M212.875 391.367C210.396 391.367 207.607 391.094 204.508 390.547C201.409 390 198.31 389.344 195.211 388.578C192.148 387.776 189.396 387.029 186.953 386.336C181.266 388.852 174.958 390.109 168.031 390.109C163.911 390.109 160.867 389.635 158.898 388.688C156.966 387.74 156 386.719 156 385.625C156 383.911 157.13 382.562 159.391 381.578C161.651 380.557 164.604 380.047 168.25 380.047C170.984 380.047 173.773 380.375 176.617 381.031C179.497 381.688 182.669 382.635 186.133 383.875C188.94 382.052 191.857 379.5 194.883 376.219C197.909 372.901 201.336 368.635 205.164 363.422C197.617 363.167 191.547 361.526 186.953 358.5C182.359 355.438 180.062 351.536 180.062 346.797C180.062 343.661 181.065 340.617 183.07 337.664C185.112 334.674 187.755 332.214 191 330.281C194.281 328.349 197.799 327.383 201.555 327.383C202.174 327.383 202.521 327.474 202.594 327.656C202.703 327.802 202.758 327.93 202.758 328.039C202.758 328.221 202.685 328.367 202.539 328.477C202.393 328.549 201.883 328.622 201.008 328.695C197.253 329.06 194.117 330.135 191.602 331.922C189.122 333.672 187.263 335.768 186.023 338.211C184.784 340.654 184.164 343.078 184.164 345.484C184.164 351.099 186.169 355.219 190.18 357.844C194.19 360.432 199.568 361.763 206.312 361.836C207.479 360.232 208.664 358.536 209.867 356.75C211.107 354.964 212.401 353.068 213.75 351.062C219.839 341.984 225.526 334.693 230.812 329.188C236.135 323.646 241.312 319.635 246.344 317.156C251.375 314.641 256.497 313.383 261.711 313.383C264.409 313.383 266.596 313.984 268.273 315.188C269.951 316.391 270.789 317.995 270.789 320C270.789 323.062 269.604 326.38 267.234 329.953C264.901 333.526 261.729 337.081 257.719 340.617C253.745 344.154 249.26 347.471 244.266 350.57C239.271 353.669 234.112 356.312 228.789 358.5C223.466 360.651 218.326 362.109 213.367 362.875C209.393 368.198 205.456 372.701 201.555 376.383C197.654 380.029 193.625 382.945 189.469 385.133C192.604 386.263 196.104 387.138 199.969 387.758C203.87 388.378 208.299 388.688 213.258 388.688C217.341 388.688 220.622 388.305 223.102 387.539C225.581 386.737 227.44 385.88 228.68 384.969C229.956 384.057 230.776 383.419 231.141 383.055C231.688 382.508 232.052 382.435 232.234 382.836C232.344 383.091 232.289 383.419 232.07 383.82C231.888 384.185 231.651 384.513 231.359 384.805C228.406 387.466 225.38 389.216 222.281 390.055C219.182 390.93 216.047 391.367 212.875 391.367ZM214.68 361.125C219.492 360.286 224.378 358.792 229.336 356.641C234.294 354.49 239.016 351.919 243.5 348.93C248.021 345.94 252.049 342.75 255.586 339.359C259.159 335.969 261.966 332.578 264.008 329.188C266.086 325.797 267.125 322.625 267.125 319.672C267.125 318.396 266.578 317.247 265.484 316.227C264.391 315.169 263.023 314.641 261.383 314.641C255.513 314.641 249.716 317.01 243.992 321.75C238.305 326.453 232.781 333.161 227.422 341.875C225.198 345.521 223.029 348.948 220.914 352.156C218.799 355.365 216.721 358.354 214.68 361.125ZM167.266 388.797C170.401 388.797 173.281 388.56 175.906 388.086C178.531 387.612 181.12 386.701 183.672 385.352C181.229 384.659 178.659 384.076 175.961 383.602C173.299 383.091 170.875 382.836 168.688 382.836C161.25 382.836 157.531 383.747 157.531 385.57C157.531 386.154 158.388 386.846 160.102 387.648C161.852 388.414 164.24 388.797 167.266 388.797ZM245.795 390.109C243.425 390.109 241.73 389.526 240.709 388.359C239.688 387.193 239.159 385.935 239.123 384.586C238.977 381.888 239.998 378.953 242.185 375.781C244.336 372.609 247.435 368.654 251.482 363.914C252.904 362.237 254.381 360.432 255.912 358.5C257.48 356.568 259.102 354.69 260.779 352.867C262.019 353.086 263.477 353.195 265.154 353.195C265.664 353.195 266.375 353.177 267.287 353.141C268.198 353.104 268.8 353.068 269.092 353.031C265.993 356.349 262.894 359.849 259.795 363.531C256.696 367.214 253.925 370.549 251.482 373.539C250.68 374.523 249.641 375.763 248.365 377.258C247.089 378.716 245.959 380.284 244.974 381.961C244.026 383.602 243.571 385.206 243.607 386.773C243.607 387.284 243.789 387.74 244.154 388.141C244.519 388.542 245.211 388.742 246.232 388.742C246.961 388.742 248.092 388.505 249.623 388.031C251.191 387.557 252.849 386.755 254.599 385.625C257.042 383.984 259.813 381.742 262.912 378.898C266.011 376.018 269.383 372.318 273.029 367.797C273.831 366.812 274.487 366.01 274.998 365.391C275.508 364.771 275.982 364.206 276.42 363.695C277.696 362.128 279.081 360.451 280.576 358.664C282.071 356.878 283.693 354.945 285.443 352.867C286.61 352.977 287.43 353.068 287.904 353.141C288.378 353.177 289.016 353.195 289.818 353.195C291.532 353.195 292.844 353.141 293.756 353.031C291.605 355.365 289.144 358.19 286.373 361.508C283.638 364.826 280.922 368.161 278.224 371.516C275.526 374.833 273.157 377.75 271.115 380.266C269.365 382.307 268.253 383.711 267.779 384.477C267.342 385.206 267.123 385.917 267.123 386.609C267.159 387.047 267.305 387.484 267.56 387.922C267.852 388.359 268.654 388.578 269.967 388.578C271.899 388.578 273.995 387.94 276.256 386.664C278.552 385.388 280.813 383.802 283.037 381.906C285.297 379.974 287.394 378.005 289.326 376C291.295 373.995 292.954 372.227 294.302 370.695C295.651 369.164 296.526 368.198 296.927 367.797L298.021 368.727C297.584 369.201 296.654 370.221 295.232 371.789C293.847 373.357 292.133 375.18 290.092 377.258C288.05 379.299 285.844 381.305 283.474 383.273C281.141 385.242 278.771 386.883 276.365 388.195C273.959 389.471 271.698 390.109 269.584 390.109C268.125 390.109 266.904 389.708 265.92 388.906C264.935 388.068 264.425 386.919 264.388 385.461C264.352 384.148 264.534 382.781 264.935 381.359C265.373 379.938 266.102 378.333 267.123 376.547C262.566 381.469 258.482 385.023 254.873 387.211C253.013 388.341 251.318 389.107 249.787 389.508C248.256 389.909 246.925 390.109 245.795 390.109ZM292.878 390.109C291.128 390.109 289.925 389.854 289.269 389.344C288.576 388.833 288.23 388.122 288.23 387.211C288.23 386.591 288.558 386.008 289.214 385.461C289.871 384.914 290.654 384.641 291.566 384.641C292.259 384.641 293.006 384.914 293.808 385.461C294.647 386.081 295.376 386.391 295.996 386.391C299.459 386.391 303.178 384.549 307.152 380.867C311.162 377.148 314.753 372.263 317.925 366.211C319.529 363.878 320.532 362.055 320.933 360.742C321.371 359.43 321.589 358.208 321.589 357.078C321.589 355.182 320.733 354.234 319.019 354.234C317.816 354.234 316.467 354.562 314.972 355.219C313.514 355.839 311.636 357.188 309.339 359.266C307.079 361.307 304.071 364.461 300.316 368.727C300.024 368.799 299.696 368.672 299.332 368.344C299.149 368.161 299.095 367.979 299.167 367.797C303.141 363.349 306.332 360.049 308.738 357.898C311.181 355.711 313.204 354.271 314.808 353.578C316.449 352.885 318.053 352.539 319.621 352.539C321.699 352.539 323.339 353.195 324.542 354.508C325.746 355.82 326.347 357.661 326.347 360.031C326.347 361.271 326.019 363.021 325.363 365.281C327.04 363.057 328.917 360.979 330.996 359.047C333.11 357.115 335.298 355.547 337.558 354.344C339.819 353.141 342.006 352.539 344.121 352.539C346.053 352.539 347.384 352.995 348.113 353.906C348.842 354.781 349.207 355.638 349.207 356.477C349.207 357.607 348.86 358.445 348.167 358.992C347.475 359.503 346.782 359.758 346.089 359.758C343.61 359.758 342.279 358.263 342.097 355.273C341.842 355.237 341.532 355.219 341.167 355.219C339.636 355.219 337.777 355.966 335.589 357.461C333.402 358.956 331.141 361.016 328.808 363.641C326.511 366.266 324.397 369.255 322.464 372.609C322.209 373.193 321.917 373.776 321.589 374.359C321.261 374.906 320.933 375.49 320.605 376.109C319.548 378.37 318.819 380.229 318.417 381.688C318.053 383.146 317.871 384.422 317.871 385.516C317.871 386.646 318.217 387.448 318.91 387.922C319.602 388.359 320.459 388.578 321.48 388.578C323.704 388.578 326.037 387.904 328.48 386.555C330.923 385.206 333.311 383.529 335.644 381.523C337.977 379.482 340.11 377.44 342.042 375.398C343.975 373.357 345.524 371.607 346.691 370.148C347.894 368.69 348.569 367.888 348.714 367.742L349.863 368.727C349.681 368.872 348.951 369.693 347.675 371.188C346.399 372.682 344.74 374.487 342.699 376.602C340.694 378.68 338.433 380.758 335.917 382.836C333.438 384.914 330.886 386.646 328.261 388.031C325.673 389.417 323.175 390.109 320.769 390.109C318.764 390.109 316.941 389.49 315.3 388.25C313.696 386.974 312.894 384.841 312.894 381.852C312.894 380.284 313.332 378.115 314.207 375.344C310.561 380.375 306.714 384.094 302.667 386.5C298.621 388.906 295.358 390.109 292.878 390.109ZM354.947 390.328C351.374 390.328 348.822 389.398 347.29 387.539C345.759 385.68 344.957 383.401 344.884 380.703C344.848 378.734 345.249 376.547 346.087 374.141C346.926 371.734 347.801 369.893 348.712 368.617C351.41 364.862 354.327 361.799 357.462 359.43C360.598 357.06 363.66 355.328 366.65 354.234C369.676 353.104 372.337 352.539 374.634 352.539C376.858 352.539 378.408 352.904 379.283 353.633C380.194 354.362 380.668 355.201 380.704 356.148C380.814 357.57 380.048 359.229 378.408 361.125C376.803 362.984 373.978 365.008 369.931 367.195C365.884 369.383 360.233 371.68 352.978 374.086C351.702 376.128 350.845 377.896 350.408 379.391C349.97 380.849 349.751 382.161 349.751 383.328C349.751 385.042 350.316 386.372 351.447 387.32C352.613 388.268 353.98 388.742 355.548 388.742C358.975 388.742 362.184 388.104 365.173 386.828C368.199 385.516 370.952 383.875 373.431 381.906C375.947 379.938 378.152 377.951 380.048 375.945C381.944 373.904 383.493 372.135 384.697 370.641C385.9 369.109 386.702 368.161 387.103 367.797L388.251 368.727C387.704 369.201 386.775 370.24 385.462 371.844C384.186 373.448 382.546 375.289 380.54 377.367C378.572 379.445 376.293 381.469 373.704 383.438C371.116 385.406 368.236 387.047 365.064 388.359C361.928 389.672 358.556 390.328 354.947 390.328ZM354.236 372.172C361.309 369.693 366.887 367.141 370.97 364.516C375.053 361.854 377.095 359.32 377.095 356.914C377.095 354.872 376.147 353.852 374.251 353.852C371.809 353.852 369.165 355.164 366.322 357.789C363.478 360.414 360.16 364.224 356.368 369.219C355.566 370.24 354.855 371.224 354.236 372.172Z" fill="#C2AC5F"/>
</svg>
